<svg id="Layer_1" data-name="Layer 1" xmlns="http://www.w3.org/2000/svg" viewBox="0 0 360 75.49"><defs><style>.cls-1{fill:#fff;}</style></defs><title>Artboard 1</title><path class="cls-1" d="M58.49,70.41A2.54,2.54,0,1,0,61,73,2.54,2.54,0,0,0,58.49,70.41Zm0,4.46A1.92,1.92,0,1,1,60.4,73,1.92,1.92,0,0,1,58.49,74.87Z"/><path class="cls-1" d="M59.67,72.37c0-.64-.47-.8-1-.8h-.78c-.26,0-.31.13-.31.29V74c0,.22.07.33.31.33s.31-.14.31-.33v-.82h.21l.53,1h0a.3.3,0,0,0,.27.16.31.31,0,0,0,.31-.31.5.5,0,0,0,0-.12h0l-.41-.75A.67.67,0,0,0,59.67,72.37Zm-1,.31h-.51v-.62h.51c.23,0,.37.07.37.31S58.91,72.68,58.68,72.68Z"/><path class="cls-1" d="M64,65.34l-1.67-8.78a.44.44,0,0,0,0-.1h0v0a.65.65,0,0,1,0-.13.56.56,0,0,1,0-.12l0,0A2,2,0,0,0,59.9,55l-4.32,1-3.4-5.29C57.85,46.38,61,40.86,61,35a16.94,16.94,0,0,0-2-8,22.68,22.68,0,0,0-5.45-6.65,37.53,37.53,0,0,0-16.72-7.68A11.24,11.24,0,0,0,36.87,11a11,11,0,1,0-21.25,4.06,13.25,13.25,0,0,0-7.26,7.31c-1.76,4.73-.33,10.24,4,15.5q.45.54.93,1.08L.14,72.64l-.07.21h0a2,2,0,0,0,1.21,2.39l.15,0h0l.13,0,.08,0h0a2.1,2.1,0,0,0,.36,0H16a1.63,1.63,0,0,0,.31,0h0a2.22,2.22,0,0,0,.37-.09l.07,0,.07,0,.12,0,0,0a2,2,0,0,0,.91-1l2.69-6.75v3.7s0,0,0,.07v2.23s0,0,0,.06v0h0A2,2,0,0,0,22,75.29a2.19,2.19,0,0,0,.63.1H45.79a2,2,0,0,0,2-2V67.76l1.31,1.18,0,0a2.67,2.67,0,0,0,3,.88l.21,0,10-2.07.21,0A2,2,0,0,0,64,65.34Zm-14.18-18L48,48.55a1.76,1.76,0,0,0-.56.63,1.61,1.61,0,0,0,0,1.69l1.18,1.83.13.18,4,6.19h0l.3.46a1.59,1.59,0,0,0,1.35.74l.3,0a1.57,1.57,0,0,0,.37-.05l3.65-.84.91,4.8-8,1.66L47.15,61.7a2,2,0,0,0-3.38,1.59v8.07H36.91V49.22a2,2,0,0,0-1.37-1.91,1.69,1.69,0,0,0-.27-.11L34.69,47c-.94-.28-2.51-.76-3.18-1s-1.51-.59-2.25-.9l2.23-5.69a27.25,27.25,0,0,0,4,1.21A8.76,8.76,0,0,0,50.39,36l6.42.62C56.28,40.58,53.86,44.32,49.83,47.38ZM24.61,59.71a2.61,2.61,0,0,0-4.93-.89,1.79,1.79,0,0,0-.12.24l-4.89,12.3H5L16.48,42a45.87,45.87,0,0,0,13.62,7.8c.65.25,1.79.6,2.78.91h0V71.36H24.63V59.71ZM37.19,34.53a4.57,4.57,0,1,1,4.57,4.56A4.58,4.58,0,0,1,37.19,34.53ZM25.86,4.19A6.83,6.83,0,1,1,19,11,6.83,6.83,0,0,1,25.86,4.19ZM12.14,23.79a9.74,9.74,0,0,1,5.66-5.28,11,11,0,0,0,17.61-2,33.83,33.83,0,0,1,15.45,6.91,16.38,16.38,0,0,1,5.83,9.16l-6.57-.64A8.76,8.76,0,0,0,33,34.53a9.23,9.23,0,0,0,.08,1.18C26.2,33.06,24,28.1,23.7,27.45A2,2,0,1,0,20,29a17.81,17.81,0,0,0,3.94,5.58,21.21,21.21,0,0,0,3.95,3.07l-2.24,5.7a34.36,34.36,0,0,1-10.12-8C12.09,31.2,10.9,27.11,12.14,23.79Z"/><path class="cls-1" d="M86.5,26.7c3,0,8.93,1,8.93,4.66a2.63,2.63,0,0,1-2.57,2.78c-1.71,0-2.87-1.45-6.36-1.45-5.16,0-7.82,4.36-7.82,9.43s2.7,9.19,7.82,9.19c3.49,0,4.9-1.75,6.61-1.75a2.93,2.93,0,0,1,2.74,2.83c0,4-6.28,4.9-9.35,4.9-8.44,0-14.3-6.69-14.3-15.29S78,26.7,86.5,26.7"/><path class="cls-1" d="M98.59,28.12a3,3,0,1,1,6,0v8.14h.08c1.25-1.54,3.57-2.08,5.44-2.08,4.7,0,8.19,3,8.19,8.07V53.72a3,3,0,1,1-6,0V43.29c0-2.79-1.75-4.12-3.91-4.12-2.45,0-3.82,1.79-3.82,4.12V53.72a3,3,0,1,1-6,0Z"/><path class="cls-1" d="M121.38,37.76a3,3,0,1,1,6,0v16a3,3,0,1,1-6,0Zm6.36-9a3.42,3.42,0,0,1-3.36,3.45A3.51,3.51,0,0,1,121,28.74a3.45,3.45,0,0,1,3.37-3.28,3.41,3.41,0,0,1,3.36,3.28"/><path class="cls-1" d="M130.61,28.12a3,3,0,1,1,6,0v25.6a3,3,0,1,1-6,0Z"/><path class="cls-1" d="M149.47,39.67c-3.11,0-4.65,3.29-4.65,6.11s1.54,6,4.65,6c3.29,0,4.7-3.32,4.7-6.23s-1.5-5.9-4.7-5.9m10.68,14a3,3,0,0,1-3,3.32,2.86,2.86,0,0,1-3-2.49,6.51,6.51,0,0,1-5.49,2.74c-6,0-9.85-5.61-9.85-11.26,0-5.82,3.2-11.85,9.65-11.85a8.68,8.68,0,0,1,5.69,2.08V28.11a3,3,0,1,1,6,0Z"/><path class="cls-1" d="M163,37.42a2.93,2.93,0,0,1,3.08-3c1.58,0,2.91.58,2.91,2.49h.08a4.71,4.71,0,0,1,4.2-2.49,2.91,2.91,0,0,1,2.91,3.19c0,2-1.79,2.08-3.57,2.91s-3.62,1.62-3.62,4v9.19a3,3,0,1,1-6,0Z"/><path class="cls-1" d="M191.42,43.74c-.34-2.62-2-4.57-4.79-4.57a4.82,4.82,0,0,0-4.73,4.57Zm-9.4,4c.42,3,2.87,4.33,5.66,4.33,3.07,0,5.19-2.41,6.77-2.41a2.65,2.65,0,0,1,2.45,2.57c0,2.58-5.32,5.07-9.77,5.07-6.73,0-11.22-4.9-11.22-11.51,0-6.07,4.41-11.6,10.72-11.6,6.49,0,10.77,5.91,10.77,10.89,0,1.79-.79,2.66-2.62,2.66Z"/><path class="cls-1" d="M199.52,37.76a3,3,0,0,1,3-3.32,2.51,2.51,0,0,1,2.74,2.2c1.17-1.62,3-2.46,5.78-2.46,4.7,0,8.19,3,8.19,8.07V53.72a3,3,0,1,1-6,0V43.29c0-2.79-1.75-4.12-3.91-4.12-2.45,0-3.83,1.79-3.83,4.12V53.72a3,3,0,1,1-6,0Z"/><path class="cls-1" d="M238.2,41.17c-1.12,0-3.41-1.75-5.36-1.75-1.08,0-2,.5-2,1.66,0,2.79,10.39,2.37,10.39,9.19,0,4-3.36,7-8.52,7-3.37,0-8.35-1.91-8.35-4.61A2.82,2.82,0,0,1,226.9,50c2.32,0,3.36,2,6.19,2,1.83,0,2.37-.58,2.37-1.71,0-2.74-10.39-2.32-10.39-9.18,0-4.16,3.36-7,8.1-7,3,0,7.48,1.37,7.48,4.33a2.59,2.59,0,0,1-2.45,2.66"/><path class="cls-1" d="M252,30.15A4.17,4.17,0,0,1,256.06,27a4.43,4.43,0,0,1,4.16,3l4.9,16.45h.09L270.11,30a4.44,4.44,0,0,1,4.16-3,4.16,4.16,0,0,1,4.07,3.19l3.87,23.19a4.47,4.47,0,0,1,0,.71,2.88,2.88,0,0,1-3,3c-2.12,0-2.95-.95-3.24-2.9l-2.46-16.92h-.08l-5,17.41a3.5,3.5,0,0,1-6.65,0l-5-17.41h-.08l-2.46,16.92c-.29,2-1.12,2.9-3.24,2.9a2.88,2.88,0,0,1-3-3,4.47,4.47,0,0,1,0-.71Z"/><path class="cls-1" d="M298.83,43.74c-.33-2.62-2-4.57-4.78-4.57a4.82,4.82,0,0,0-4.74,4.57Zm-9.39,4c.41,3,2.86,4.33,5.65,4.33,3.08,0,5.19-2.41,6.77-2.41a2.65,2.65,0,0,1,2.46,2.57c0,2.58-5.32,5.07-9.77,5.07-6.73,0-11.22-4.9-11.22-11.51,0-6.07,4.4-11.6,10.72-11.6,6.48,0,10.77,5.91,10.77,10.89,0,1.79-.8,2.66-2.62,2.66Z"/><path class="cls-1" d="M306.94,37.42a2.94,2.94,0,0,1,3.08-3c1.58,0,2.91.58,2.91,2.49H313a4.68,4.68,0,0,1,4.19-2.49,2.91,2.91,0,0,1,2.91,3.19c0,2-1.79,2.08-3.57,2.91s-3.62,1.62-3.62,4v9.19a3,3,0,1,1-6,0Z"/><path class="cls-1" d="M335.83,40.83c-1.5,0-2.83-1.16-4.74-1.16-3.41,0-5,3-5,6.11s1.79,6,5,6c1.5,0,3.74-1.25,4.45-1.25a2.63,2.63,0,0,1,2.57,2.62c0,3.07-5.15,4.11-7.31,4.11-6.44,0-10.72-5.28-10.72-11.51,0-6.07,4.4-11.6,10.72-11.6,2.37,0,7.31.88,7.31,3.79,0,1.24-.87,2.86-2.28,2.86"/><path class="cls-1" d="M340.13,38.55a4.18,4.18,0,0,1-.29-1.54,2.86,2.86,0,0,1,2.82-2.57,3,3,0,0,1,3,2.11l4.11,11.27,4.4-11.27a3,3,0,0,1,3-2.11A2.87,2.87,0,0,1,360,37a3.5,3.5,0,0,1-.3,1.54l-10,24.94a3.23,3.23,0,0,1-2.83,2.37c-2,0-3.12-1.29-3.12-2.58a5,5,0,0,1,.38-1.75l2.62-6.48Z"/><path class="cls-1" d="M225,27a2.63,2.63,0,0,0-2.08,1.2L220,33.56a3.31,3.31,0,0,0-.41,1.42,2.43,2.43,0,0,0,4.52,1.18l3-5.33a3.38,3.38,0,0,0,.45-1.42A2.55,2.55,0,0,0,225,27"/></svg>