<?xml version="1.0" encoding="utf-8"?>
<!-- Generator: Adobe Illustrator 22.0.1, SVG Export Plug-In . SVG Version: 6.00 Build 0)  -->
<svg version="1.1" id="Layer_1" xmlns="http://www.w3.org/2000/svg" xmlns:xlink="http://www.w3.org/1999/xlink" x="0px" y="0px"
	 viewBox="0 0 64.1 75.3" style="enable-background:new 0 0 64.1 75.3;" xml:space="preserve">
<style type="text/css">
	.st0{fill:#FFFFFF;}
	.st1{fill:#005CB9;}
</style>
<title>Artboard 1</title>
<path class="st0" d="M58.5,70.3c-1.4,0-2.6,1.1-2.6,2.5s1.1,2.6,2.5,2.6c1.4,0,2.5-1.1,2.6-2.5C61,71.5,59.9,70.4,58.5,70.3
	C58.5,70.3,58.5,70.3,58.5,70.3z M58.5,74.8c-1.1,0-1.9-0.9-1.9-1.9c0-1.1,0.9-1.9,1.9-1.9c1.1,0,1.9,0.9,1.9,1.9c0,0,0,0,0,0.1
	C60.4,74,59.5,74.8,58.5,74.8z"/>
<path class="st0" d="M59.7,72.3c0-0.6-0.5-0.8-1-0.8h-0.8c-0.3,0-0.3,0.1-0.3,0.3v2.1c0,0.2,0.1,0.3,0.3,0.3s0.3-0.1,0.3-0.3v-0.8
	h0.2l0.5,1l0,0c0.1,0.1,0.2,0.2,0.3,0.2c0.2,0,0.3-0.1,0.3-0.3c0,0,0-0.1,0-0.1l0,0l-0.4-0.8C59.5,73,59.7,72.7,59.7,72.3
	C59.7,72.3,59.7,72.3,59.7,72.3z M58.7,72.6h-0.5V72h0.5c0.2,0,0.4,0.1,0.4,0.3S58.9,72.6,58.7,72.6L58.7,72.6z"/>
<path class="st1" d="M64,65.3l-1.7-8.8c0,0,0-0.1,0-0.1l0,0l0,0c0,0,0-0.1,0-0.1c0,0,0-0.1,0-0.1l0,0c-0.4-1-1.4-1.5-2.4-1.2l-4.3,1
	l-3.4-5.3c5.7-4.3,8.8-9.8,8.8-15.7c0-2.8-0.7-5.5-2-8c-1.4-2.5-3.2-4.8-5.5-6.6c-4.8-3.9-10.6-6.5-16.7-7.7c0.1-0.6,0.1-1.1,0-1.7
	c0-6.1-5-11-11.1-10.9s-11,5-10.9,11.1c0,1.3,0.3,2.7,0.7,3.9c-3.3,1.4-5.9,4-7.3,7.3C6.6,27,8,32.5,12.4,37.8
	c0.3,0.4,0.6,0.7,0.9,1.1L0.1,72.6l-0.1,0.2l0,0c-0.3,1,0.3,2,1.2,2.4h0.1l0,0h0.1h0.1l0,0c0.1,0,0.2,0,0.4,0h14c0.1,0,0.2,0,0.3,0
	l0,0c0.1,0,0.2,0,0.4-0.1h0.1h0.1h0.1l0,0c0.4-0.2,0.7-0.6,0.9-1l2.7-6.8V71c0,0,0,0,0,0.1v2.2c0,0,0,0,0,0.1l0,0l0,0
	c0,0.9,0.6,1.6,1.5,1.8c0.2,0.1,0.4,0.1,0.6,0.1h23.2c1.1,0,2-0.9,2-2v-5.6l1.3,1.2l0,0c0.7,0.9,1.9,1.3,3,0.9h0.2l10-2.1h0.2
	C63.6,67.4,64.3,66.3,64,65.3z M49.8,47.3L48,48.5c-0.2,0.2-0.4,0.4-0.6,0.6c-0.3,0.5-0.3,1.2,0,1.7l1.2,1.8l0.1,0.2l4,6.2l0,0
	l0.3,0.5c0.3,0.5,0.8,0.7,1.3,0.7h0.3c0.1,0,0.2,0,0.4,0l3.7-0.8l0.9,4.8l-8,1.7l-4.5-4.1c-0.8-0.8-2.1-0.7-2.8,0.1
	c-0.4,0.4-0.6,1-0.6,1.5v8.1h-6.9V49.2c0-0.9-0.5-1.6-1.4-1.9c-0.1,0-0.2-0.1-0.3-0.1l-0.6-0.2c-0.9-0.3-2.5-0.8-3.2-1
	c-0.7-0.2-1.5-0.6-2.2-0.9l2.2-5.7c1.3,0.5,2.6,0.9,4,1.2c3.4,3.5,8.9,3.5,12.4,0.2c1.3-1.3,2.2-3,2.5-4.8l6.4,0.6
	C56.3,40.5,53.9,44.3,49.8,47.3L49.8,47.3z M24.6,59.6c-0.2-1.4-1.4-2.5-2.9-2.3c-0.9,0.1-1.7,0.6-2.1,1.4c0,0.1-0.1,0.2-0.1,0.2
	l-4.9,12.3H5l11.5-29.4c4.1,3.4,8.7,6,13.6,7.8c0.6,0.2,1.8,0.6,2.8,0.9l0,0v20.7h-8.2L24.6,59.6L24.6,59.6z M37.2,34.5
	c0-2.5,2-4.6,4.6-4.6c2.5,0,4.6,2,4.6,4.6c0,2.5-2,4.6-4.6,4.6c0,0,0,0,0,0C39.2,39,37.2,37,37.2,34.5z M25.9,4.1
	c3.8,0,6.8,3.1,6.8,6.9s-3.1,6.8-6.9,6.8c-3.8,0-6.8-3.1-6.8-6.8C19,7.2,22.1,4.1,25.9,4.1C25.9,4.1,25.9,4.1,25.9,4.1z M12.1,23.7
	c1.1-2.5,3.1-4.4,5.7-5.3c4.1,4.5,11.1,4.7,15.5,0.6c0.8-0.8,1.5-1.6,2.1-2.6c5.7,1,11,3.3,15.5,6.9c2.9,2.3,5,5.5,5.8,9.2l-6.6-0.6
	c-1.4-4.6-6.4-7.2-11-5.7c-3.6,1.1-6.1,4.5-6.1,8.3c0,0.4,0,0.8,0.1,1.2C26.2,33,24,28,23.7,27.4c-0.4-1-1.6-1.5-2.6-1.1
	s-1.5,1.6-1.1,2.6c0.9,2.1,2.3,4,3.9,5.6c1.2,1.2,2.5,2.2,4,3.1l-2.2,5.7c-3.8-2-7.3-4.7-10.1-8C12.1,31.1,10.9,27,12.1,23.7z"/>
</svg>
